HIERARCHY
ROOT hips
{
	OFFSET -0.003675 0.299928 -0.021708
	CHANNELS 6 Xposition Yposition Zposition Xrotation Yrotation Zrotation
	JOINT LowerBack
	{
		OFFSET 0.000919 0.177588 0.009275
		CHANNELS 3 Xrotation Yrotation Zrotation
		JOINT spine
		{
			OFFSET 0.000919 0.177588 0.009275
			CHANNELS 3 Xrotation Yrotation Zrotation
			JOINT chest
			{
				OFFSET 0.000456 0.100015 0.004638
				CHANNELS 3 Xrotation Yrotation Zrotation
				JOINT neck
				{
					OFFSET 0.000456 0.100015 0.004638
					CHANNELS 3 Xrotation Yrotation Zrotation
					JOINT head
					{
						OFFSET 0.000924 0.155147 0.009274
						CHANNELS 6 Xposition Yposition Zposition Xrotation Yrotation Zrotation
						End Site
						{
							OFFSET 0.000000 0.153400 0.000000
						}
					}
				}
				JOINT shoulder.L
				{
					OFFSET 0.019937 0.078966 0.057518
					CHANNELS 6 Xposition Yposition Zposition Yrotation Xrotation Zrotation
					JOINT upper_arm.L
					{
						OFFSET 0.177024 -0.020465 -0.095062
						CHANNELS 6 Xposition Yposition Zposition Xrotation Yrotation Zrotation
						JOINT forearm.L
						{
							OFFSET 0.247100 -0.135500 -0.061800
							CHANNELS 3 Xrotation Yrotation Zrotation
							JOINT hand.L
							{
								OFFSET 0.217000 -0.143000 0.039300
								CHANNELS 3 Xrotation Yrotation Zrotation
								JOINT palm.01.L
								{
									OFFSET 0.021770 -0.038291 0.012954
									CHANNELS 6 Xposition Yposition Zposition Yrotation Xrotation Zrotation
									JOINT f_index.01.L
									{
										OFFSET 0.053215 -0.044137 0.008236
										CHANNELS 3 Xrotation Yrotation Zrotation
										JOINT f_index.02.L
										{
											OFFSET 0.036108 -0.024723 -0.010656
											CHANNELS 3 Xrotation Yrotation Zrotation
											JOINT f_index.03.L
											{
												OFFSET 0.021342 -0.014948 -0.010846
												CHANNELS 3 Xrotation Yrotation Zrotation
												End Site
												{
													OFFSET 0.015600 -0.009860 -0.013421
												}
											}
										}
									}
									JOINT thumb.01.L
									{
										OFFSET -0.009090 -0.002348 -0.024223
										CHANNELS 6 Xposition Yposition Zposition Xrotation Yrotation Zrotation
										JOINT thumb.02.L
										{
											OFFSET 0.019713 -0.035076 -0.011120
											CHANNELS 3 Xrotation Yrotation Zrotation
											JOINT thumb.03.L
											{
												OFFSET 0.024877 -0.021748 -0.005176
												CHANNELS 3 Xrotation Yrotation Zrotation
												End Site
												{
													OFFSET 0.016125 -0.013029 -0.001569
												}
											}
										}
									}
								}
								JOINT palm.02.L
								{
									OFFSET 0.032823 -0.025104 0.012281
									CHANNELS 6 Xposition Yposition Zposition Yrotation Xrotation Zrotation
									JOINT f_middle.01.L
									{
										OFFSET 0.055723 -0.038469 0.008037
										CHANNELS 3 Xrotation Yrotation Zrotation
										JOINT f_middle.02.L
										{
											OFFSET 0.038167 -0.027473 -0.015582
											CHANNELS 3 Xrotation Yrotation Zrotation
											JOINT f_middle.03.L
											{
												OFFSET 0.021707 -0.016587 -0.017037
												CHANNELS 3 Xrotation Yrotation Zrotation
												End Site
												{
													OFFSET 0.014112 -0.010584 -0.014294
												}
											}
										}
									}
								}
								JOINT palm.03.L
								{
									OFFSET 0.039230 -0.011402 0.008390
									CHANNELS 6 Xposition Yposition Zposition Yrotation Xrotation Zrotation
									JOINT f_ring.01.L
									{
										OFFSET 0.061796 -0.031470 0.007910
										CHANNELS 3 Xrotation Yrotation Zrotation
										JOINT f_ring.02.L
										{
											OFFSET 0.033092 -0.023401 -0.019127
											CHANNELS 3 Xrotation Yrotation Zrotation
											JOINT f_ring.03.L
											{
												OFFSET 0.021392 -0.015362 -0.017824
												CHANNELS 3 Xrotation Yrotation Zrotation
												End Site
												{
													OFFSET 0.008670 -0.007297 -0.014686
												}
											}
										}
									}
								}
								JOINT palm.04.L
								{
									OFFSET 0.043417 0.002450 0.002889
									CHANNELS 6 Xposition Yposition Zposition Yrotation Xrotation Zrotation
									JOINT f_pinky.01.L
									{
										OFFSET 0.069986 -0.026156 0.003627
										CHANNELS 3 Xrotation Yrotation Zrotation
										JOINT f_pinky.02.L
										{
											OFFSET 0.018520 -0.012813 -0.016429
											CHANNELS 3 Xrotation Yrotation Zrotation
											JOINT f_pinky.03.L
											{
												OFFSET 0.013822 -0.009796 -0.014947
												CHANNELS 3 Xrotation Yrotation Zrotation
												End Site
												{
													OFFSET 0.007238 -0.006103 -0.011657
												}
											}
										}
									}
								}
							}
						}
					}
				}
				JOINT shoulder.R
				{
					OFFSET -0.016662 0.078957 0.057696
					CHANNELS 6 Xposition Yposition Zposition Yrotation Xrotation Zrotation
					JOINT upper_arm.R
					{
						OFFSET -0.176972 -0.020537 -0.095144
						CHANNELS 6 Xposition Yposition Zposition Xrotation Yrotation Zrotation
						JOINT forearm.R
						{
							OFFSET -0.247100 -0.135500 -0.061800
							CHANNELS 3 Xrotation Yrotation Zrotation
							JOINT hand.R
							{
								OFFSET -0.217000 -0.143000 0.039300
								CHANNELS 3 Xrotation Yrotation Zrotation
								JOINT palm.01.R
								{
									OFFSET -0.021773 -0.038278 0.012988
									CHANNELS 6 Xposition Yposition Zposition Yrotation Xrotation Zrotation
									JOINT f_index.01.R
									{
										OFFSET -0.053212 -0.044139 0.008249
										CHANNELS 3 Xrotation Yrotation Zrotation
										JOINT f_index.02.R
										{
											OFFSET -0.036049 -0.024835 -0.010634
											CHANNELS 3 Xrotation Yrotation Zrotation
											JOINT f_index.03.R
											{
												OFFSET -0.021371 -0.014881 -0.010866
												CHANNELS 3 Xrotation Yrotation Zrotation
												End Site
												{
													OFFSET -0.015584 -0.009883 -0.013422
												}
											}
										}
									}
									JOINT thumb.01.R
									{
										OFFSET 0.009113 -0.002381 -0.024211
										CHANNELS 6 Xposition Yposition Zposition Xrotation Yrotation Zrotation
										JOINT thumb.02.R
										{
											OFFSET -0.019694 -0.035097 -0.011088
											CHANNELS 3 Xrotation Yrotation Zrotation
											JOINT thumb.03.R
											{
												OFFSET -0.024867 -0.021762 -0.005168
												CHANNELS 3 Xrotation Yrotation Zrotation
												End Site
												{
													OFFSET -0.016120 -0.013036 -0.001565
												}
											}
										}
									}
								}
								JOINT palm.02.R
								{
									OFFSET -0.032828 -0.025095 0.012286
									CHANNELS 6 Xposition Yposition Zposition Yrotation Xrotation Zrotation
									JOINT f_middle.01.R
									{
										OFFSET -0.055721 -0.038472 0.008040
										CHANNELS 3 Xrotation Yrotation Zrotation
										JOINT f_middle.02.R
										{
											OFFSET -0.038101 -0.027593 -0.015557
											CHANNELS 3 Xrotation Yrotation Zrotation
											JOINT f_middle.03.R
											{
												OFFSET -0.021730 -0.016530 -0.017054
												CHANNELS 3 Xrotation Yrotation Zrotation
												End Site
												{
													OFFSET -0.014096 -0.010608 -0.014293
												}
											}
										}
									}
								}
								JOINT palm.03.R
								{
									OFFSET -0.039192 -0.011488 0.008390
									CHANNELS 6 Xposition Yposition Zposition Yrotation Xrotation Zrotation
									JOINT f_ring.01.R
									{
										OFFSET -0.061839 -0.031387 0.007876
										CHANNELS 3 Xrotation Yrotation Zrotation
										JOINT f_ring.02.R
										{
											OFFSET -0.033068 -0.023437 -0.019125
											CHANNELS 3 Xrotation Yrotation Zrotation
											JOINT f_ring.03.R
											{
												OFFSET -0.021371 -0.015393 -0.017822
												CHANNELS 3 Xrotation Yrotation Zrotation
												End Site
												{
													OFFSET -0.008654 -0.007321 -0.014684
												}
											}
										}
									}
								}
								JOINT palm.04.R
								{
									OFFSET -0.043421 0.002443 0.002845
									CHANNELS 6 Xposition Yposition Zposition Yrotation Xrotation Zrotation
									JOINT f_pinky.01.R
									{
										OFFSET -0.069983 -0.026169 0.003599
										CHANNELS 3 Xrotation Yrotation Zrotation
										JOINT f_pinky.02.R
										{
											OFFSET -0.018501 -0.012842 -0.016428
											CHANNELS 3 Xrotation Yrotation Zrotation
											JOINT f_pinky.03.R
											{
												OFFSET -0.013806 -0.009821 -0.014946
												CHANNELS 3 Xrotation Yrotation Zrotation
												End Site
												{
													OFFSET -0.007226 -0.006121 -0.011655
												}
											}
										}
									}
								}
							}
						}
					}
				}
			}
		}
	}
	JOINT pelvis.L
	{
		OFFSET 0.000000 0.000000 0.000000
		CHANNELS 6 Xposition Yposition Zposition Xrotation Yrotation Zrotation
		JOINT thigh.L
		{
			OFFSET 0.101675 0.001054 -0.000000
			CHANNELS 3 Xrotation Yrotation Zrotation
			JOINT shin.L
			{
				OFFSET 0.000000 -0.534800 0.041000
				CHANNELS 3 Xrotation Yrotation Zrotation
				JOINT foot.L
				{
					OFFSET 0.000000 -0.452000 -0.044800
					CHANNELS 3 Xrotation Yrotation Zrotation
					JOINT toe.L
					{
						OFFSET -0.000000 -0.068500 0.109600
						CHANNELS 3 Xrotation Yrotation Zrotation
						End Site
						{
							OFFSET -0.000000 0.000000 0.067200
						}
					}
				}
				JOINT heel.L
				{
					OFFSET 0.000000 -0.452000 -0.044800
					CHANNELS 3 Xrotation Yrotation Zrotation
					JOINT heel.02.L
					{
						OFFSET -0.038000 -0.085200 0.016200
						CHANNELS 6 Xposition Yposition Zposition Xrotation Yrotation Zrotation
						End Site
						{
							OFFSET 0.080000 -0.000000 0.000000
						}
					}
				}
			}
		}
	}
	JOINT pelvis.R
	{
		OFFSET 0.000000 0.000000 0.000000
		CHANNELS 6 Xposition Yposition Zposition Xrotation Yrotation Zrotation
		JOINT thigh.R
		{
			OFFSET -0.094325 0.001054 0.000000
			CHANNELS 3 Xrotation Yrotation Zrotation
			JOINT shin.R
			{
				OFFSET 0.000000 -0.534800 0.041000
				CHANNELS 3 Xrotation Yrotation Zrotation
				JOINT foot.R
				{
					OFFSET 0.000000 -0.452000 -0.044800
					CHANNELS 3 Xrotation Yrotation Zrotation
					JOINT toe.R
					{
						OFFSET -0.000000 -0.068500 0.109600
						CHANNELS 3 Xrotation Yrotation Zrotation
						End Site
						{
							OFFSET -0.000000 0.000000 0.067200
						}
					}
				}
				JOINT heel.R
				{
					OFFSET 0.000000 -0.452000 -0.044800
					CHANNELS 3 Xrotation Yrotation Zrotation
					JOINT heel.02.R
					{
						OFFSET 0.038000 -0.085200 0.016200
						CHANNELS 6 Xposition Yposition Zposition Xrotation Yrotation Zrotation
						End Site
						{
							OFFSET -0.080000 0.000000 -0.000000
						}
					}
				}
			}
		}
	}
}
MOTION
Frames: 4
Frame Time: 0.041667
-0.003675 0.299928 -0.021708 0.000000 -0.000000 0.000000 -0.000001 0.000000 0.000000 -0.000000 0.000000 0.000000 -0.000000 0.000000 0.000000 -0.000000 -0.000000 -0.000000 0.000924 0.155147 0.009274 -0.000001 -0.000000 -0.000000 0.019937 0.078966 0.057518 0.000001 0.000001 -0.000005 0.177024 -0.020465 -0.095062 -0.000006 -0.000003 0.000015 -0.000009 -0.000004 -0.000009 -0.000000 0.000000 0.000001 0.021770 -0.038291 0.012954 0.000001 -0.000001 0.000001 -0.000001 -0.000001 -0.000002 -0.000001 -0.000000 0.000007 -0.000000 0.000000 0.000003 -0.009090 -0.002348 -0.024224 -0.000002 0.000001 0.000001 0.000001 -0.000001 0.000001 -0.000000 0.000000 -0.000001 0.032823 -0.025104 0.012281 0.000000 -0.000000 0.000000 0.000001 0.000004 -0.000003 -0.000001 -0.000000 -0.000000 -0.000001 -0.000003 0.000003 0.039230 -0.011402 0.008390 -0.000000 -0.000000 0.000008 0.000001 0.000001 -0.000000 -0.000001 0.000003 -0.000001 0.000002 0.000002 -0.000000 0.043417 0.002450 0.002889 -0.000000 0.000001 0.000002 -0.000001 -0.000003 0.000001 -0.000000 0.000003 -0.000000 -0.000000 -0.000003 0.000001 -0.016662 0.078956 0.057696 -0.000001 0.000002 0.000011 -0.176972 -0.020537 -0.095144 0.000001 -0.000003 -0.000005 -0.000006 0.000005 -0.000014 -0.000001 -0.000000 0.000000 -0.021773 -0.038278 0.012988 0.000000 -0.000001 -0.000003 -0.000001 0.000001 -0.000003 -0.000001 -0.000000 0.000001 0.000001 0.000002 0.000007 0.009113 -0.002381 -0.024211 0.000002 -0.000001 0.000004 -0.000000 0.000001 0.000002 0.000000 0.000000 -0.000003 -0.032828 -0.025095 0.012286 0.000001 -0.000001 -0.000001 -0.000001 0.000003 -0.000003 -0.000002 0.000004 -0.000001 0.000001 -0.000002 -0.000000 -0.039192 -0.011488 0.008390 0.000000 0.000000 0.000001 -0.000000 0.000003 -0.000003 -0.000001 0.000001 0.000002 -0.000001 0.000000 -0.000003 -0.043421 0.002443 0.002844 -0.000000 -0.000001 0.000000 -0.000007 0.000003 -0.000002 -0.000003 -0.000000 -0.000000 0.000001 -0.000000 0.000001 -0.000000 0.000000 -0.000000 -0.000001 -0.000000 0.000001 0.000009 -0.000202 0.000014 -0.000026 0.000202 -0.000015 0.000000 -0.000000 -0.000000 0.000002 -0.000000 -0.000000 0.000000 0.000000 -0.000000 -0.038000 -0.085200 0.016200 0.000000 0.000000 0.000000 0.000000 -0.000000 -0.000000 -0.000001 0.000000 -0.000004 0.000008 -0.000013 0.000005 -0.000012 0.000013 -0.000001 -0.000003 -0.000000 -0.000000 0.000000 -0.000000 -0.000000 0.000002 -0.000000 -0.000000 0.038000 -0.085200 0.016200 0.000002 -0.000000 0.000000 
-0.006121 0.260104 -0.013850 -2.939521 -10.032564 18.793563 0.000000 0.000001 -0.000002 0.000000 0.000001 -0.000001 -0.000000 -0.000000 -0.000001 -0.000000 -0.000001 0.000001 0.000924 0.155148 0.009274 14.419895 -0.020541 8.878682 0.019937 0.078966 0.057518 -3.143964 9.531988 58.497278 0.177025 -0.020465 -0.095062 15.022969 -32.474438 43.735071 -3.942124 15.485038 61.183243 0.000001 -0.000002 -0.000000 0.021770 -0.038291 0.012954 0.000001 -0.000000 0.000001 0.000004 0.000000 -0.000002 0.000000 -0.000002 0.000008 0.000005 0.000003 0.000000 -0.009090 -0.002348 -0.024223 0.000004 -0.000003 0.000001 -0.000000 -0.000004 0.000001 0.000001 -0.000002 -0.000002 0.032823 -0.025104 0.012281 -0.000001 -0.000000 0.000007 -0.000001 0.000000 -0.000005 -0.000006 -0.000004 0.000005 0.000002 -0.000002 -0.000006 0.039230 -0.011402 0.008390 0.000000 0.000001 0.000004 0.000004 0.000002 -0.000000 -0.000002 -0.000001 0.000004 0.000000 -0.000005 0.000002 0.043417 0.002450 0.002889 -0.000001 -0.000003 -0.000002 0.000001 -0.000003 -0.000000 0.000004 0.000003 0.000001 0.000001 -0.000002 -0.000002 -0.016662 0.078957 0.057696 -19.123857 10.434809 -45.763207 -0.176972 -0.020537 -0.095144 13.643694 24.228308 -42.590587 -7.345914 -21.921424 -60.421178 0.000001 0.000000 0.000000 -0.021773 -0.038278 0.012988 -0.000001 -0.000001 -0.000002 -0.000001 0.000004 -0.000003 -0.000000 0.000001 -0.000001 -0.000002 0.000000 0.000003 0.009114 -0.002381 -0.024212 -0.000000 0.000000 -0.000003 -0.000000 -0.000002 0.000000 0.000001 0.000001 -0.000003 -0.032828 -0.025095 0.012286 -0.000000 -0.000000 -0.000001 -0.000000 0.000005 -0.000003 0.000000 0.000000 0.000002 -0.000000 -0.000001 -0.000004 -0.039192 -0.011488 0.008390 0.000002 0.000000 -0.000000 -0.000000 0.000001 0.000000 0.000001 -0.000004 -0.000000 -0.000002 0.000001 -0.000002 -0.043421 0.002443 0.002844 0.000000 0.000000 0.000000 -0.000003 0.000004 -0.000002 -0.000001 -0.000004 0.000004 -0.000002 0.000003 -0.000001 -0.000000 0.000000 -0.000000 -1.499902 0.778851 -10.829594 10.376630 -0.309044 -4.318231 21.267997 0.077847 -0.783410 -0.000005 0.000000 0.000000 0.000001 -0.000000 0.000000 0.000003 -0.000000 0.000000 -0.038000 -0.085200 0.016200 0.000004 -0.000000 -0.000000 -0.000000 0.000000 0.000000 -1.443522 0.768673 -9.596161 3.552300 -0.497791 -6.592601 21.658878 1.131854 -11.497593 -0.000002 -0.000000 -0.000000 0.000001 -0.000000 -0.000000 0.000002 0.000000 -0.000000 0.038000 -0.085200 0.016200 -0.000002 -0.000000 0.000000 
-0.006433 0.262898 -0.013033 -2.381850 -9.408959 17.465108 -0.000000 0.000001 -0.000001 0.000000 -0.000000 0.000001 0.000000 0.000001 -0.000000 0.000000 0.000001 -0.000001 0.000924 0.155148 0.009274 11.281207 -0.016319 8.051310 0.019937 0.078966 0.057518 -3.273298 9.824349 58.476180 0.177025 -0.020465 -0.095062 14.668067 -31.041191 43.330256 -3.075602 13.966273 59.453607 0.000001 0.000003 0.000004 0.021770 -0.038291 0.012954 -0.000002 -0.000002 0.000005 -0.000001 -0.000000 0.000001 0.000000 -0.000000 0.000010 -0.000000 0.000001 -0.000000 -0.009090 -0.002348 -0.024223 -0.000003 -0.000001 0.000003 0.000003 0.000001 0.000005 0.000002 0.000000 0.000001 0.032823 -0.025104 0.012281 -0.000002 -0.000000 0.000005 -0.000002 0.000002 -0.000005 -0.000004 0.000000 0.000001 -0.000001 -0.000003 0.000000 0.039230 -0.011402 0.008390 -0.000000 -0.000000 0.000006 0.000004 -0.000004 0.000005 0.000004 0.000005 -0.000001 -0.000005 -0.000006 0.000005 0.043417 0.002450 0.002889 -0.000001 0.000002 -0.000002 -0.000001 -0.000006 0.000003 0.000003 0.000000 0.000001 -0.000003 -0.000001 0.000000 -0.016662 0.078957 0.057696 -18.645549 10.607986 -45.724496 -0.176972 -0.020537 -0.095144 12.623410 23.109786 -41.341236 -6.384414 -20.949607 -58.180357 -0.000001 -0.000001 0.000001 -0.021773 -0.038278 0.012988 -0.000000 -0.000001 -0.000003 -0.000001 -0.000000 0.000000 -0.000001 -0.000000 -0.000004 0.000001 0.000000 0.000001 0.009113 -0.002381 -0.024211 0.000002 -0.000002 0.000004 0.000000 -0.000002 0.000000 0.000001 0.000000 -0.000001 -0.032828 -0.025095 0.012286 0.000000 0.000001 -0.000004 0.000000 0.000003 0.000002 0.000002 0.000003 -0.000000 -0.000002 0.000001 -0.000004 -0.039192 -0.011488 0.008390 0.000001 0.000001 0.000001 -0.000000 0.000003 0.000000 0.000003 0.000001 -0.000000 -0.000002 -0.000000 0.000003 -0.043421 0.002443 0.002845 0.000001 0.000000 -0.000001 -0.000003 0.000000 -0.000001 0.000002 -0.000003 0.000003 -0.000000 -0.000004 0.000002 -0.000000 -0.000000 -0.000000 -1.446454 0.699724 -9.960739 12.902916 -0.227748 -3.379835 18.372413 0.054217 -0.544997 -0.000005 -0.000001 0.000001 0.000001 -0.000001 0.000000 -0.000002 -0.000001 -0.000000 -0.038000 -0.085200 0.016200 -0.000001 -0.000000 0.000001 -0.000000 -0.000000 -0.000000 -1.394063 0.691084 -8.727197 5.083565 -0.470448 -6.131727 21.509316 0.955729 -9.689130 0.000002 -0.000000 -0.000000 -0.000002 -0.000000 -0.000001 0.000005 -0.000000 0.000000 0.038000 -0.085200 0.016200 0.000000 -0.000000 -0.000001 
-0.006333 0.265792 -0.013548 -3.382049 -6.996605 16.795106 -0.000000 -0.000001 -0.000002 -0.000000 -0.000001 0.000001 -0.000000 -0.000000 -0.000001 0.000001 -0.000000 0.000001 0.000924 0.155148 0.009274 11.989560 -0.016006 7.009175 0.019937 0.078966 0.057518 -2.949708 10.017180 57.880601 0.177024 -0.020465 -0.095062 15.123430 -31.532624 43.767835 -3.657288 15.568771 57.517358 -0.000000 0.000000 -0.000002 0.021770 -0.038291 0.012954 0.000001 0.000006 0.000003 -0.000002 -0.000002 -0.000002 -0.000000 -0.000000 0.000005 -0.000000 0.000000 0.000003 -0.009090 -0.002348 -0.024224 0.000001 -0.000002 -0.000003 -0.000000 0.000000 -0.000000 0.000001 -0.000003 -0.000001 0.032823 -0.025104 0.012281 0.000000 0.000007 0.000005 0.000001 0.000007 -0.000007 -0.000004 -0.000000 0.000007 -0.000003 -0.000003 -0.000001 0.039230 -0.011402 0.008390 0.000001 0.000006 0.000002 0.000004 0.000000 -0.000000 0.000004 0.000005 -0.000001 0.000006 -0.000003 0.000003 0.043417 0.002450 0.002889 -0.000000 0.000006 0.000002 -0.000001 -0.000006 -0.000000 -0.000000 -0.000002 0.000000 0.000002 -0.000002 0.000000 -0.016662 0.078957 0.057696 -17.250865 10.656413 -46.264143 -0.176972 -0.020537 -0.095144 13.697226 23.744046 -42.591578 -6.790386 -22.401205 -56.894759 -0.000001 -0.000000 -0.000001 -0.021773 -0.038278 0.012988 -0.000003 -0.000001 0.000000 0.000001 0.000001 -0.000001 -0.000000 0.000001 -0.000004 -0.000002 0.000003 0.000002 0.009114 -0.002381 -0.024211 0.000001 -0.000003 0.000000 -0.000000 0.000001 0.000002 0.000001 0.000001 -0.000003 -0.032828 -0.025095 0.012286 -0.000002 -0.000000 -0.000001 0.000000 0.000001 0.000002 -0.000000 0.000003 -0.000004 -0.000001 0.000001 -0.000004 -0.039192 -0.011487 0.008390 -0.000002 0.000000 0.000001 0.000001 0.000001 0.000000 0.000003 -0.000004 -0.000000 0.000000 0.000001 -0.000001 -0.043420 0.002443 0.002845 -0.000003 0.000000 0.000002 -0.000004 0.000004 -0.000001 -0.000001 -0.000001 -0.000000 0.000001 -0.000001 0.000001 0.000000 0.000000 -0.000000 -1.402399 0.634471 -9.224817 13.291438 -0.173257 -2.685442 22.615636 0.100280 -1.009768 -0.000003 0.000000 -0.000001 0.000001 -0.000001 0.000000 -0.000003 -0.000000 0.000000 -0.038000 -0.085200 0.016200 0.000002 0.000000 0.000000 0.000000 0.000000 -0.000000 -1.353231 0.627007 -7.991185 5.115765 -0.493962 -6.437505 22.866539 0.834613 -8.451312 0.000000 0.000000 -0.000000 0.000001 0.000000 0.000000 0.000005 -0.000000 -0.000000 0.038000 -0.085200 0.016200 -0.000002 -0.000000 -0.000000 
